<svg width="17" height="19" fill="none" xmlns="http://www.w3.org/2000/svg"><path d="M16.997 7.687a5.496 5.496 0 0 1-3.01-.586 5.222 5.222 0 0 1-1.916-1.684v7.81a5.595 5.595 0 0 1-1.017 3.207 5.986 5.986 0 0 1-2.709 2.127 6.292 6.292 0 0 1-3.487.328 6.126 6.126 0 0 1-3.09-1.58 5.7 5.7 0 0 1-1.652-2.955 5.54 5.54 0 0 1 .343-3.336 5.836 5.836 0 0 1 2.223-2.59 6.233 6.233 0 0 1 3.354-.973c.126 0 .249.01.373.018v2.845c-.124-.014-.246-.036-.373-.036-.817 0-1.6.31-2.179.863a2.883 2.883 0 0 0-.902 2.083c0 .781.325 1.53.902 2.083a3.153 3.153 0 0 0 2.179.863c1.701 0 3.204-1.282 3.204-2.91L9.27 0h2.845A4.987 4.987 0 0 0 13.7 3.11 5.414 5.414 0 0 0 17 4.527v3.161" fill="#fff"/></svg>