<svg width="22" height="19" fill="none" xmlns="http://www.w3.org/2000/svg"><path d="M22 2.25a8.65 8.65 0 0 1-2.592.754A4.77 4.77 0 0 0 21.392.35c-.872.55-1.837.95-2.866 1.163C17.703.583 16.531 0 15.232 0 12.74 0 10.72 2.148 10.72 4.798c0 .367.04.733.116 1.091-3.752-.2-7.077-2.11-9.303-5.012a5.027 5.027 0 0 0-.61 2.411c0 1.664.797 3.134 2.007 3.993a4.302 4.302 0 0 1-2.044-.6v.062c0 2.324 1.555 4.262 3.62 4.703a4.29 4.29 0 0 1-2.038.082c.574 1.905 2.241 3.293 4.217 3.33-1.546 1.287-3.492 2.054-5.607 2.054-.364 0-.723-.023-1.077-.067C1.998 18.207 4.37 19 6.918 19c8.303 0 12.843-7.308 12.843-13.646 0-.206-.005-.414-.014-.62a9.516 9.516 0 0 0 2.251-2.481L22 2.25Z" fill="#fff"/></svg>