<svg width="146" height="31" fill="none" xmlns="http://www.w3.org/2000/svg"><path d="M6.36 14.76V6.64h4.44c3.16 0 4.56 1.52 4.56 4.08 0 2.48-1.4 4.04-4.56 4.04H6.36Zm14.76-4.04c0-4.84-3.36-8.64-10.08-8.64H.76V30h5.6V19.28h4.68c7.2 0 10.08-4.32 10.08-8.56Zm9.576 8.24c0-4.28 2-5.56 5.32-5.56h1.48V7.52c-3.08 0-5.4 1.48-6.8 3.76V7.84h-5.6V30h5.6V18.96Zm31.972-.04c0-7-5-11.44-11.4-11.44s-11.4 4.44-11.4 11.44c0 6.96 4.84 11.44 11.24 11.44 6.44 0 11.56-4.48 11.56-11.44Zm-17.12 0c0-4.44 2.68-6.56 5.64-6.56 2.96 0 5.72 2.12 5.72 6.56 0 4.4-2.84 6.56-5.8 6.56-3 0-5.56-2.16-5.56-6.56ZM92.507 2.04h-16.2V30h16.2v-4.56h-10.6v-7.4h9.4V13.6h-9.4v-7h10.6V2.04Zm3.649 16.8c0 6.92 4.48 11.52 10.12 11.52 3.48 0 5.96-1.6 7.28-3.64V30h5.68V.4h-5.68v10.52c-1.52-2.08-4.32-3.44-7.24-3.44-5.68 0-10.16 4.44-10.16 11.36Zm17.44.08c0 4.2-2.8 6.52-5.88 6.52-3 0-5.84-2.4-5.84-6.6 0-4.2 2.84-6.44 5.84-6.44 3.08 0 5.88 2.32 5.88 6.52Zm32.029-11.08h-5.64v12.2c0 3.56-1.92 5.48-4.96 5.48-2.96 0-4.92-1.92-4.92-5.48V7.84h-5.6v13c0 6.08 3.72 9.44 8.88 9.44 2.76 0 5.2-1.2 6.6-3.08V30h5.64V7.84Z" fill="#fff"/></svg>